<svg width="24" height="24" viewBox="0 0 24 24" fill="none" xmlns="http://www.w3.org/2000/svg">
<path d="M8.15938 7.70723L5.07682 7.70723C4.12833 7.70723 3.35938 8.47619 3.35938 9.42467C3.35938 9.99395 3.64162 10.5267 4.11298 10.8464L9.8317 14.7219C11.1411 15.609 12.8586 15.609 14.168 14.7219L19.8848 10.8474C20.3571 10.5277 20.6394 9.99491 20.6394 9.42563C20.6394 8.47715 19.8704 7.70723 18.9219 7.70723H15.8394M3.35938 9.44003L3.35938 18.2672C3.35938 19.328 4.21858 20.1872 5.27937 20.1872L18.7194 20.1872C19.7802 20.1872 20.6394 19.328 20.6394 18.2672L20.6394 9.44003M3.89505 19.5987L9.19809 14.2957M14.7987 14.2947L20.1018 19.5978M11.9984 2.90723V9.57539M11.9984 2.90723L13.9184 4.82723M11.9984 2.90723L10.0784 4.82723" stroke="white" stroke-width="1.5" stroke-linecap="round" stroke-linejoin="round"/>
</svg>
